<?xml version="1.0" standalone="no"?>
<!DOCTYPE svg PUBLIC "-//W3C//DTD SVG 20010904//EN"
 "http://www.w3.org/TR/2001/REC-SVG-20010904/DTD/svg10.dtd">
<svg version="1.0" xmlns="http://www.w3.org/2000/svg"
 width="700.000000pt" height="700.000000pt" viewBox="0 0 700.000000 700.000000"
 preserveAspectRatio="xMidYMid meet">
<metadata>
Created by potrace 1.14, written by Peter Selinger 2001-2017
</metadata>
<g transform="translate(0.000000,700.000000) scale(0.100000,-0.100000)"
fill="#000000" stroke="none">
<path d="M3280 6994 c-19 -2 -84 -9 -145 -14 -636 -62 -1266 -316 -1795 -726
-148 -114 -480 -446 -594 -594 -411 -530 -654 -1132 -728 -1795 -17 -155 -17
-575 0 -730 52 -469 197 -931 418 -1327 288 -519 734 -985 1234 -1291 450
-274 920 -434 1465 -499 142 -17 586 -17 730 0 682 79 1268 318 1802 734 138
107 389 351 512 498 451 538 717 1163 803 1885 17 144 17 586 0 730 -86 723
-351 1347 -803 1885 -123 147 -374 391 -509 496 -532 413 -1098 647 -1760 730
-117 15 -552 27 -630 18z m1719 -2043 c155 -48 286 -189 325 -349 15 -60 17
-159 14 -972 l-3 -905 -27 -95 c-70 -248 -193 -450 -390 -636 -535 -505 -1452
-662 -2214 -379 -136 51 -330 152 -444 233 -52 37 -147 119 -211 182 -209 208
-329 430 -374 689 -23 128 -22 1800 0 1886 42 158 171 297 323 346 54 17 129
18 1499 18 1387 1 1443 0 1502 -18z"/>
</g>
</svg>
